<mxfile host="app.diagrams.net" agent="Mozilla/5.0 (Macintosh; Intel Mac OS X 10_15_7) AppleWebKit/537.36 (KHTML, like Gecko) Chrome/134.0.0.0 Safari/537.36" version="26.1.2">
  <diagram name="Page-1" id="d69pLQotTY_AekZZZo8l">
    <mxGraphModel dx="1062" dy="665" grid="1" gridSize="10" guides="1" tooltips="1" connect="1" arrows="1" fold="1" page="1" pageScale="1" pageWidth="827" pageHeight="1169" math="0" shadow="0">
      <root>
        <mxCell id="0" />
        <mxCell id="1" parent="0" />
        <mxCell id="tHQHfzf1FzXZG5griDS2-6" style="edgeStyle=orthogonalEdgeStyle;rounded=0;orthogonalLoop=1;jettySize=auto;html=1;entryX=0.5;entryY=0;entryDx=0;entryDy=0;" edge="1" parent="1" source="tHQHfzf1FzXZG5griDS2-1" target="tHQHfzf1FzXZG5griDS2-5">
          <mxGeometry relative="1" as="geometry" />
        </mxCell>
        <mxCell id="tHQHfzf1FzXZG5griDS2-1" value="Main.js" style="rounded=0;whiteSpace=wrap;html=1;" vertex="1" parent="1">
          <mxGeometry x="10" y="10" width="110" height="30" as="geometry" />
        </mxCell>
        <mxCell id="tHQHfzf1FzXZG5griDS2-2" style="edgeStyle=orthogonalEdgeStyle;rounded=0;orthogonalLoop=1;jettySize=auto;html=1;exitX=0.5;exitY=1;exitDx=0;exitDy=0;" edge="1" parent="1" source="tHQHfzf1FzXZG5griDS2-1" target="tHQHfzf1FzXZG5griDS2-1">
          <mxGeometry relative="1" as="geometry" />
        </mxCell>
        <mxCell id="tHQHfzf1FzXZG5griDS2-7" style="edgeStyle=orthogonalEdgeStyle;rounded=0;orthogonalLoop=1;jettySize=auto;html=1;" edge="1" parent="1" source="tHQHfzf1FzXZG5griDS2-5" target="tHQHfzf1FzXZG5griDS2-8">
          <mxGeometry relative="1" as="geometry">
            <mxPoint x="200" y="75" as="targetPoint" />
          </mxGeometry>
        </mxCell>
        <mxCell id="tHQHfzf1FzXZG5griDS2-5" value="App.js" style="whiteSpace=wrap;html=1;" vertex="1" parent="1">
          <mxGeometry x="10" y="60" width="110" height="30" as="geometry" />
        </mxCell>
        <mxCell id="tHQHfzf1FzXZG5griDS2-9" style="edgeStyle=orthogonalEdgeStyle;rounded=0;orthogonalLoop=1;jettySize=auto;html=1;entryX=0.5;entryY=0;entryDx=0;entryDy=0;" edge="1" parent="1" source="tHQHfzf1FzXZG5griDS2-8" target="tHQHfzf1FzXZG5griDS2-10">
          <mxGeometry relative="1" as="geometry">
            <mxPoint x="300" y="75" as="targetPoint" />
          </mxGeometry>
        </mxCell>
        <mxCell id="tHQHfzf1FzXZG5griDS2-8" value="src/router" style="rounded=0;whiteSpace=wrap;html=1;" vertex="1" parent="1">
          <mxGeometry x="140" y="60" width="120" height="30" as="geometry" />
        </mxCell>
        <mxCell id="tHQHfzf1FzXZG5griDS2-11" style="edgeStyle=orthogonalEdgeStyle;rounded=0;orthogonalLoop=1;jettySize=auto;html=1;exitX=0.5;exitY=1;exitDx=0;exitDy=0;" edge="1" parent="1" source="tHQHfzf1FzXZG5griDS2-10">
          <mxGeometry relative="1" as="geometry">
            <mxPoint x="199.81818181818176" y="210" as="targetPoint" />
          </mxGeometry>
        </mxCell>
        <mxCell id="tHQHfzf1FzXZG5griDS2-12" style="edgeStyle=orthogonalEdgeStyle;rounded=0;orthogonalLoop=1;jettySize=auto;html=1;" edge="1" parent="1" source="tHQHfzf1FzXZG5griDS2-10">
          <mxGeometry relative="1" as="geometry">
            <mxPoint x="80" y="270" as="targetPoint" />
          </mxGeometry>
        </mxCell>
        <mxCell id="tHQHfzf1FzXZG5griDS2-13" style="edgeStyle=orthogonalEdgeStyle;rounded=0;orthogonalLoop=1;jettySize=auto;html=1;entryX=0.5;entryY=0;entryDx=0;entryDy=0;" edge="1" parent="1" source="tHQHfzf1FzXZG5griDS2-10" target="tHQHfzf1FzXZG5griDS2-17">
          <mxGeometry relative="1" as="geometry">
            <mxPoint x="560" y="260" as="targetPoint" />
            <Array as="points">
              <mxPoint x="698" y="175" />
              <mxPoint x="698" y="260" />
            </Array>
          </mxGeometry>
        </mxCell>
        <mxCell id="tHQHfzf1FzXZG5griDS2-10" value="" style="rhombus;whiteSpace=wrap;html=1;" vertex="1" parent="1">
          <mxGeometry x="155" y="120" width="90" height="110" as="geometry" />
        </mxCell>
        <mxCell id="tHQHfzf1FzXZG5griDS2-14" value="/mission-control/" style="text;strokeColor=none;align=center;fillColor=none;html=1;verticalAlign=middle;whiteSpace=wrap;rounded=0;" vertex="1" parent="1">
          <mxGeometry x="60" y="150" width="90" height="30" as="geometry" />
        </mxCell>
        <mxCell id="tHQHfzf1FzXZG5griDS2-15" value="/mission-control/c/:channelId/e/:eventId/t/:trackId?/:sessionId?" style="text;strokeColor=none;align=center;fillColor=none;html=1;verticalAlign=middle;whiteSpace=wrap;rounded=0;" vertex="1" parent="1">
          <mxGeometry x="245" y="150" width="370" height="30" as="geometry" />
        </mxCell>
        <mxCell id="tHQHfzf1FzXZG5griDS2-16" value="/src/views/mission-control/index.vue" style="rounded=0;whiteSpace=wrap;html=1;" vertex="1" parent="1">
          <mxGeometry x="21" y="270" width="219" height="60" as="geometry" />
        </mxCell>
        <mxCell id="tHQHfzf1FzXZG5griDS2-31" style="edgeStyle=orthogonalEdgeStyle;rounded=0;orthogonalLoop=1;jettySize=auto;html=1;entryX=1;entryY=0.5;entryDx=0;entryDy=0;" edge="1" parent="1" source="tHQHfzf1FzXZG5griDS2-17" target="tHQHfzf1FzXZG5griDS2-26">
          <mxGeometry relative="1" as="geometry">
            <Array as="points">
              <mxPoint x="700" y="520" />
            </Array>
          </mxGeometry>
        </mxCell>
        <mxCell id="tHQHfzf1FzXZG5griDS2-17" value="/src/views/mission-control/view.vue" style="rounded=0;whiteSpace=wrap;html=1;" vertex="1" parent="1">
          <mxGeometry x="480" y="260" width="325" height="60" as="geometry" />
        </mxCell>
        <mxCell id="tHQHfzf1FzXZG5griDS2-19" value="" style="endArrow=classic;html=1;rounded=0;" edge="1" parent="1">
          <mxGeometry width="50" height="50" relative="1" as="geometry">
            <mxPoint x="700" y="400" as="sourcePoint" />
            <mxPoint x="600" y="400" as="targetPoint" />
            <Array as="points">
              <mxPoint x="680" y="400" />
            </Array>
          </mxGeometry>
        </mxCell>
        <mxCell id="tHQHfzf1FzXZG5griDS2-21" value="" style="endArrow=classic;html=1;rounded=0;" edge="1" parent="1">
          <mxGeometry width="50" height="50" relative="1" as="geometry">
            <mxPoint x="700" y="460" as="sourcePoint" />
            <mxPoint x="600" y="460" as="targetPoint" />
            <Array as="points">
              <mxPoint x="680" y="460" />
            </Array>
          </mxGeometry>
        </mxCell>
        <mxCell id="tHQHfzf1FzXZG5griDS2-22" value="Mission Control reload logic" style="rounded=0;whiteSpace=wrap;html=1;fillColor=#d5e8d4;strokeColor=#82b366;" vertex="1" parent="1">
          <mxGeometry x="480" y="380" width="120" height="40" as="geometry" />
        </mxCell>
        <mxCell id="tHQHfzf1FzXZG5griDS2-27" style="edgeStyle=orthogonalEdgeStyle;rounded=0;orthogonalLoop=1;jettySize=auto;html=1;entryX=0.5;entryY=0;entryDx=0;entryDy=0;exitX=0;exitY=0.5;exitDx=0;exitDy=0;" edge="1" parent="1" source="tHQHfzf1FzXZG5griDS2-25" target="tHQHfzf1FzXZG5griDS2-28">
          <mxGeometry relative="1" as="geometry">
            <mxPoint x="360" y="519.55" as="targetPoint" />
            <mxPoint x="450" y="520" as="sourcePoint" />
            <Array as="points">
              <mxPoint x="255" y="460" />
            </Array>
          </mxGeometry>
        </mxCell>
        <mxCell id="tHQHfzf1FzXZG5griDS2-25" value="Track" style="rounded=0;whiteSpace=wrap;html=1;fillColor=#d5e8d4;strokeColor=#82b366;" vertex="1" parent="1">
          <mxGeometry x="480" y="440" width="120" height="40" as="geometry" />
        </mxCell>
        <mxCell id="tHQHfzf1FzXZG5griDS2-26" value="Event Control" style="rounded=0;whiteSpace=wrap;html=1;fillColor=#d5e8d4;strokeColor=#82b366;" vertex="1" parent="1">
          <mxGeometry x="480" y="500" width="120" height="40" as="geometry" />
        </mxCell>
        <mxCell id="tHQHfzf1FzXZG5griDS2-28" value="SessionController&lt;div&gt;(/src/Layout/Components/MissionControl/&lt;/div&gt;&lt;div&gt;SessionController.vue)&lt;/div&gt;" style="rounded=0;whiteSpace=wrap;html=1;" vertex="1" parent="1">
          <mxGeometry x="140" y="568" width="230" height="70" as="geometry" />
        </mxCell>
        <mxCell id="tHQHfzf1FzXZG5griDS2-32" value="EventControllerDialog&lt;div&gt;(/src/Layout/Components/MissionControl/&lt;/div&gt;&lt;div&gt;EventControllerDialog.vue)&lt;/div&gt;" style="rounded=0;whiteSpace=wrap;html=1;" vertex="1" parent="1">
          <mxGeometry x="460" y="570" width="240" height="68" as="geometry" />
        </mxCell>
        <mxCell id="tHQHfzf1FzXZG5griDS2-41" style="edgeStyle=orthogonalEdgeStyle;rounded=0;orthogonalLoop=1;jettySize=auto;html=1;entryX=0.336;entryY=-0.04;entryDx=0;entryDy=0;entryPerimeter=0;" edge="1" parent="1" source="tHQHfzf1FzXZG5griDS2-26" target="tHQHfzf1FzXZG5griDS2-32">
          <mxGeometry relative="1" as="geometry" />
        </mxCell>
      </root>
    </mxGraphModel>
  </diagram>
</mxfile>
